<svg width="80" height="80" viewBox="0 0 80 80" fill="none" xmlns="http://www.w3.org/2000/svg">
  <defs>
    <linearGradient id="g" x1="0" y1="0" x2="1" y2="1">
      <stop offset="0%" stop-color="#10B981"/>
      <stop offset="100%" stop-color="#0EA5E9"/>
    </linearGradient>
    <filter id="blur">
      <feGaussianBlur stdDeviation="1.5" result="b"/>
      <feMerge><feMergeNode in="b"/><feMergeNode in="SourceGraphic"/></feMerge>
    </filter>
  </defs>
  <g filter="url(#blur)">
    <path d="M40 4 L72 22 L72 58 L40 76 L8 58 L8 22 Z" stroke="url(#g)" stroke-width="1.5" fill="none" opacity="0.35"/>
    <path d="M40 14 L62 26.5 L62 53.5 L40 66 L18 53.5 L18 26.5 Z" stroke="url(#g)" stroke-width="1.5" fill="none" opacity="0.75"/>
    <circle cx="40" cy="40" r="5.5" fill="url(#g)"/>
    <line x1="40" y1="34.5" x2="40" y2="14" stroke="url(#g)" stroke-width="1.2" opacity="0.65"/>
    <line x1="44.8" y1="37.2" x2="62" y2="26.5" stroke="url(#g)" stroke-width="1.2" opacity="0.65"/>
    <line x1="44.8" y1="42.8" x2="62" y2="53.5" stroke="url(#g)" stroke-width="1.2" opacity="0.65"/>
    <line x1="40" y1="45.5" x2="40" y2="66" stroke="url(#g)" stroke-width="1.2" opacity="0.65"/>
    <line x1="35.2" y1="42.8" x2="18" y2="53.5" stroke="url(#g)" stroke-width="1.2" opacity="0.65"/>
    <line x1="35.2" y1="37.2" x2="18" y2="26.5" stroke="url(#g)" stroke-width="1.2" opacity="0.65"/>
    <circle cx="40" cy="14" r="3.5" fill="#10B981"/>
    <circle cx="62" cy="26.5" r="3.5" fill="#0EA5E9"/>
    <circle cx="62" cy="53.5" r="3.5" fill="#10B981"/>
    <circle cx="40" cy="66" r="3.5" fill="#0EA5E9"/>
    <circle cx="18" cy="53.5" r="3.5" fill="#10B981"/>
    <circle cx="18" cy="26.5" r="3.5" fill="#0EA5E9"/>
  </g>
</svg>
